<?xml version="1.0" encoding="UTF-8"?>
<svg xmlns="http://www.w3.org/2000/svg" xmlns:xlink="http://www.w3.org/1999/xlink" width="200pt" height="10pt" viewBox="0 0 200 10" version="1.1" shape-rendering="crispEdges" shape-rendering="crispEdges">
<defs>
<linearGradient id="linear0" gradientUnits="userSpaceOnUse" x1="0" y1="0" x2="40" y2="0" >
<stop offset="0" style="stop-color:rgb(50.196078%,0%,50.196078%);stop-opacity:1;"/>
<stop offset="1" style="stop-color:rgb(50.196078%,0%,50.196078%);stop-opacity:0.5;"/>
</linearGradient>
<linearGradient id="linear1" gradientUnits="userSpaceOnUse" x1="40" y1="0" x2="80" y2="0" >
<stop offset="0" style="stop-color:rgb(100%,100%,0%);stop-opacity:1;"/>
<stop offset="1" style="stop-color:rgb(100%,100%,0%);stop-opacity:0.5;"/>
</linearGradient>
<linearGradient id="linear2" gradientUnits="userSpaceOnUse" x1="80" y1="0" x2="120" y2="0" >
<stop offset="0" style="stop-color:rgb(100%,0%,0%);stop-opacity:1;"/>
<stop offset="1" style="stop-color:rgb(100%,0%,0%);stop-opacity:0.5;"/>
</linearGradient>
<linearGradient id="linear3" gradientUnits="userSpaceOnUse" x1="120" y1="0" x2="160" y2="0" >
<stop offset="0" style="stop-color:rgb(0%,0%,100%);stop-opacity:1;"/>
<stop offset="1" style="stop-color:rgb(0%,0%,100%);stop-opacity:0.5;"/>
</linearGradient>
<linearGradient id="linear4" gradientUnits="userSpaceOnUse" x1="160" y1="0" x2="200" y2="0" >
<stop offset="0" style="stop-color:rgb(100%,64.705882%,0%);stop-opacity:1;"/>
<stop offset="1" style="stop-color:rgb(100%,64.705882%,0%);stop-opacity:0.5;"/>
</linearGradient>
</defs>
<g id="surface77">
<path style=" stroke:none;fill-rule:nonzero;fill:url(#linear0);" d="M 0 0 L 40 0 L 40 10 L 0 10 Z M 0 0 "/>
<path style=" stroke:none;fill-rule:nonzero;fill:url(#linear1);" d="M 40 0 L 80 0 L 80 10 L 40 10 Z M 40 0 "/>
<path style=" stroke:none;fill-rule:nonzero;fill:url(#linear2);" d="M 80 0 L 120 0 L 120 10 L 80 10 Z M 80 0 "/>
<path style=" stroke:none;fill-rule:nonzero;fill:url(#linear3);" d="M 120 0 L 160 0 L 160 10 L 120 10 Z M 120 0 "/>
<path style=" stroke:none;fill-rule:nonzero;fill:url(#linear4);" d="M 160 0 L 200 0 L 200 10 L 160 10 Z M 160 0 "/>
</g>
</svg>
