<?xml version="1.0" encoding="UTF-8"?>
<svg xmlns="http://www.w3.org/2000/svg" xmlns:xlink="http://www.w3.org/1999/xlink" width="200pt" height="10pt" viewBox="0 0 200 10" version="1.1" shape-rendering="crispEdges" shape-rendering="crispEdges">
<defs>
<linearGradient id="linear0" gradientUnits="userSpaceOnUse" x1="0" y1="0" x2="12.5" y2="0" >
<stop offset="0" style="stop-color:rgb(0%,0%,0%);stop-opacity:1;"/>
<stop offset="1" style="stop-color:rgb(0%,0%,0%);stop-opacity:0.5;"/>
</linearGradient>
<linearGradient id="linear1" gradientUnits="userSpaceOnUse" x1="12.5" y1="0" x2="25" y2="0" >
<stop offset="0" style="stop-color:rgb(0%,0%,100%);stop-opacity:1;"/>
<stop offset="1" style="stop-color:rgb(0%,0%,100%);stop-opacity:0.5;"/>
</linearGradient>
<linearGradient id="linear2" gradientUnits="userSpaceOnUse" x1="25" y1="0" x2="37.5" y2="0" >
<stop offset="0" style="stop-color:rgb(67.843137%,84.705882%,90.196078%);stop-opacity:1;"/>
<stop offset="1" style="stop-color:rgb(67.843137%,84.705882%,90.196078%);stop-opacity:0.5;"/>
</linearGradient>
<linearGradient id="linear3" gradientUnits="userSpaceOnUse" x1="37.5" y1="0" x2="50" y2="0" >
<stop offset="0" style="stop-color:rgb(100%,100%,100%);stop-opacity:1;"/>
<stop offset="1" style="stop-color:rgb(100%,100%,100%);stop-opacity:0.5;"/>
</linearGradient>
<linearGradient id="linear4" gradientUnits="userSpaceOnUse" x1="50" y1="0" x2="62.5" y2="0" >
<stop offset="0" style="stop-color:rgb(0%,0%,100%);stop-opacity:1;"/>
<stop offset="1" style="stop-color:rgb(0%,0%,100%);stop-opacity:0.5;"/>
</linearGradient>
<linearGradient id="linear5" gradientUnits="userSpaceOnUse" x1="62.5" y1="0" x2="75" y2="0" >
<stop offset="0" style="stop-color:rgb(67.843137%,84.705882%,90.196078%);stop-opacity:1;"/>
<stop offset="1" style="stop-color:rgb(67.843137%,84.705882%,90.196078%);stop-opacity:0.5;"/>
</linearGradient>
<linearGradient id="linear6" gradientUnits="userSpaceOnUse" x1="75" y1="0" x2="87.5" y2="0" >
<stop offset="0" style="stop-color:rgb(100%,100%,100%);stop-opacity:1;"/>
<stop offset="1" style="stop-color:rgb(100%,100%,100%);stop-opacity:0.5;"/>
</linearGradient>
<linearGradient id="linear7" gradientUnits="userSpaceOnUse" x1="87.5" y1="0" x2="100" y2="0" >
<stop offset="0" style="stop-color:rgb(0%,0%,0%);stop-opacity:1;"/>
<stop offset="1" style="stop-color:rgb(0%,0%,0%);stop-opacity:0.5;"/>
</linearGradient>
<linearGradient id="linear8" gradientUnits="userSpaceOnUse" x1="100" y1="0" x2="112.5" y2="0" >
<stop offset="0" style="stop-color:rgb(67.843137%,84.705882%,90.196078%);stop-opacity:1;"/>
<stop offset="1" style="stop-color:rgb(67.843137%,84.705882%,90.196078%);stop-opacity:0.5;"/>
</linearGradient>
<linearGradient id="linear9" gradientUnits="userSpaceOnUse" x1="112.5" y1="0" x2="125" y2="0" >
<stop offset="0" style="stop-color:rgb(100%,100%,100%);stop-opacity:1;"/>
<stop offset="1" style="stop-color:rgb(100%,100%,100%);stop-opacity:0.5;"/>
</linearGradient>
<linearGradient id="linear10" gradientUnits="userSpaceOnUse" x1="125" y1="0" x2="137.5" y2="0" >
<stop offset="0" style="stop-color:rgb(0%,0%,0%);stop-opacity:1;"/>
<stop offset="1" style="stop-color:rgb(0%,0%,0%);stop-opacity:0.5;"/>
</linearGradient>
<linearGradient id="linear11" gradientUnits="userSpaceOnUse" x1="137.5" y1="0" x2="150" y2="0" >
<stop offset="0" style="stop-color:rgb(0%,0%,100%);stop-opacity:1;"/>
<stop offset="1" style="stop-color:rgb(0%,0%,100%);stop-opacity:0.5;"/>
</linearGradient>
<linearGradient id="linear12" gradientUnits="userSpaceOnUse" x1="150" y1="0" x2="162.5" y2="0" >
<stop offset="0" style="stop-color:rgb(100%,100%,100%);stop-opacity:1;"/>
<stop offset="1" style="stop-color:rgb(100%,100%,100%);stop-opacity:0.5;"/>
</linearGradient>
<linearGradient id="linear13" gradientUnits="userSpaceOnUse" x1="162.5" y1="0" x2="175" y2="0" >
<stop offset="0" style="stop-color:rgb(0%,0%,0%);stop-opacity:1;"/>
<stop offset="1" style="stop-color:rgb(0%,0%,0%);stop-opacity:0.5;"/>
</linearGradient>
<linearGradient id="linear14" gradientUnits="userSpaceOnUse" x1="175" y1="0" x2="187.5" y2="0" >
<stop offset="0" style="stop-color:rgb(0%,0%,100%);stop-opacity:1;"/>
<stop offset="1" style="stop-color:rgb(0%,0%,100%);stop-opacity:0.5;"/>
</linearGradient>
<linearGradient id="linear15" gradientUnits="userSpaceOnUse" x1="187.5" y1="0" x2="200" y2="0" >
<stop offset="0" style="stop-color:rgb(67.843137%,84.705882%,90.196078%);stop-opacity:1;"/>
<stop offset="1" style="stop-color:rgb(67.843137%,84.705882%,90.196078%);stop-opacity:0.5;"/>
</linearGradient>
</defs>
<g id="surface117">
<path style=" stroke:none;fill-rule:nonzero;fill:url(#linear0);" d="M 0 0 L 12.5 0 L 12.5 10 L 0 10 Z M 0 0 "/>
<path style=" stroke:none;fill-rule:nonzero;fill:url(#linear1);" d="M 12.5 0 L 25 0 L 25 10 L 12.5 10 Z M 12.5 0 "/>
<path style=" stroke:none;fill-rule:nonzero;fill:url(#linear2);" d="M 25 0 L 37.5 0 L 37.5 10 L 25 10 Z M 25 0 "/>
<path style=" stroke:none;fill-rule:nonzero;fill:url(#linear3);" d="M 37.5 0 L 50 0 L 50 10 L 37.5 10 Z M 37.5 0 "/>
<path style=" stroke:none;fill-rule:nonzero;fill:url(#linear4);" d="M 50 0 L 62.5 0 L 62.5 10 L 50 10 Z M 50 0 "/>
<path style=" stroke:none;fill-rule:nonzero;fill:url(#linear5);" d="M 62.5 0 L 75 0 L 75 10 L 62.5 10 Z M 62.5 0 "/>
<path style=" stroke:none;fill-rule:nonzero;fill:url(#linear6);" d="M 75 0 L 87.5 0 L 87.5 10 L 75 10 Z M 75 0 "/>
<path style=" stroke:none;fill-rule:nonzero;fill:url(#linear7);" d="M 87.5 0 L 100 0 L 100 10 L 87.5 10 Z M 87.5 0 "/>
<path style=" stroke:none;fill-rule:nonzero;fill:url(#linear8);" d="M 100 0 L 112.5 0 L 112.5 10 L 100 10 Z M 100 0 "/>
<path style=" stroke:none;fill-rule:nonzero;fill:url(#linear9);" d="M 112.5 0 L 125 0 L 125 10 L 112.5 10 Z M 112.5 0 "/>
<path style=" stroke:none;fill-rule:nonzero;fill:url(#linear10);" d="M 125 0 L 137.5 0 L 137.5 10 L 125 10 Z M 125 0 "/>
<path style=" stroke:none;fill-rule:nonzero;fill:url(#linear11);" d="M 137.5 0 L 150 0 L 150 10 L 137.5 10 Z M 137.5 0 "/>
<path style=" stroke:none;fill-rule:nonzero;fill:url(#linear12);" d="M 150 0 L 162.5 0 L 162.5 10 L 150 10 Z M 150 0 "/>
<path style=" stroke:none;fill-rule:nonzero;fill:url(#linear13);" d="M 162.5 0 L 175 0 L 175 10 L 162.5 10 Z M 162.5 0 "/>
<path style=" stroke:none;fill-rule:nonzero;fill:url(#linear14);" d="M 175 0 L 187.5 0 L 187.5 10 L 175 10 Z M 175 0 "/>
<path style=" stroke:none;fill-rule:nonzero;fill:url(#linear15);" d="M 187.5 0 L 200 0 L 200 10 L 187.5 10 Z M 187.5 0 "/>
</g>
</svg>
