<?xml version="1.0" encoding="UTF-8"?>
<svg xmlns="http://www.w3.org/2000/svg" xmlns:xlink="http://www.w3.org/1999/xlink" width="600pt" height="50pt" viewBox="0 0 600 50" version="1.1">
<g id="surface5">
<rect x="0" y="0" width="600" height="50" style="fill:rgb(0%,0%,0%);fill-opacity:1;stroke:none;"/>
<path style=" stroke:none;fill-rule:nonzero;fill:rgb(0%,0%,0%);fill-opacity:1;" d="M 0 0 L 37.5 0 L 37.5 50 L 0 50 Z M 0 0 "/>
<path style=" stroke:none;fill-rule:nonzero;fill:rgb(100%,100%,100%);fill-opacity:1;" d="M 37.5 0 L 75 0 L 75 50 L 37.5 50 Z M 37.5 0 "/>
<path style=" stroke:none;fill-rule:nonzero;fill:rgb(0%,0%,0%);fill-opacity:1;" d="M 75 0 L 112.5 0 L 112.5 50 L 75 50 Z M 75 0 "/>
<path style=" stroke:none;fill-rule:nonzero;fill:rgb(100%,100%,100%);fill-opacity:1;" d="M 112.5 0 L 150 0 L 150 50 L 112.5 50 Z M 112.5 0 "/>
<path style=" stroke:none;fill-rule:nonzero;fill:rgb(0%,0%,0%);fill-opacity:1;" d="M 150 0 L 187.5 0 L 187.5 50 L 150 50 Z M 150 0 "/>
<path style=" stroke:none;fill-rule:nonzero;fill:rgb(100%,100%,100%);fill-opacity:1;" d="M 187.5 0 L 225 0 L 225 50 L 187.5 50 Z M 187.5 0 "/>
<path style=" stroke:none;fill-rule:nonzero;fill:rgb(0%,0%,0%);fill-opacity:1;" d="M 225 0 L 262.5 0 L 262.5 50 L 225 50 Z M 225 0 "/>
<path style=" stroke:none;fill-rule:nonzero;fill:rgb(100%,100%,100%);fill-opacity:1;" d="M 262.5 0 L 300 0 L 300 50 L 262.5 50 Z M 262.5 0 "/>
<path style=" stroke:none;fill-rule:nonzero;fill:rgb(0%,0%,0%);fill-opacity:1;" d="M 300 0 L 337.5 0 L 337.5 50 L 300 50 Z M 300 0 "/>
<path style=" stroke:none;fill-rule:nonzero;fill:rgb(100%,100%,100%);fill-opacity:1;" d="M 337.5 0 L 375 0 L 375 50 L 337.5 50 Z M 337.5 0 "/>
<path style=" stroke:none;fill-rule:nonzero;fill:rgb(0%,0%,0%);fill-opacity:1;" d="M 375 0 L 412.5 0 L 412.5 50 L 375 50 Z M 375 0 "/>
<path style=" stroke:none;fill-rule:nonzero;fill:rgb(100%,100%,100%);fill-opacity:1;" d="M 412.5 0 L 450 0 L 450 50 L 412.5 50 Z M 412.5 0 "/>
<path style=" stroke:none;fill-rule:nonzero;fill:rgb(0%,0%,0%);fill-opacity:1;" d="M 450 0 L 487.5 0 L 487.5 50 L 450 50 Z M 450 0 "/>
<path style=" stroke:none;fill-rule:nonzero;fill:rgb(100%,100%,100%);fill-opacity:1;" d="M 487.5 0 L 525 0 L 525 50 L 487.5 50 Z M 487.5 0 "/>
<path style=" stroke:none;fill-rule:nonzero;fill:rgb(0%,0%,0%);fill-opacity:1;" d="M 525 0 L 562.5 0 L 562.5 50 L 525 50 Z M 525 0 "/>
<path style=" stroke:none;fill-rule:nonzero;fill:rgb(100%,100%,100%);fill-opacity:1;" d="M 562.5 0 L 600 0 L 600 50 L 562.5 50 Z M 562.5 0 "/>
</g>
</svg>
